<svg width="30" height="30" viewBox="0 0 30 30" fill="none" xmlns="http://www.w3.org/2000/svg">
<g clip-path="url(#clip0_368_70)">
<path d="M13.9694 4.19218C14.6334 3.93594 15.3666 3.93594 16.0306 4.19218L29.3753 9.34143C30.2099 9.66353 30.2077 10.8649 29.3719 11.1838L23.4006 13.4619L14.9206 16.6385C13.3166 16.0996 10.8804 15.1558 8.77859 14.3308C8.37188 14.1711 7.97757 14.0158 7.60478 13.869L6.64786 13.4927C6.58262 13.4671 6.51867 13.4317 6.45591 13.4071L0.628099 11.1838C-0.20767 10.8649 -0.209916 9.66353 0.624672 9.34143L13.9694 4.19218Z" fill="#465A5A"/>
<path d="M6.45591 15.4728V23.3126C6.45591 25.2158 10.2491 26.7586 14.9283 26.7586C19.6074 26.7586 23.4006 25.2158 23.4006 23.3126V15.5716L14.9365 18.6795L14.7786 18.6273C13.1499 18.089 10.5952 17.0993 8.42991 16.2492C8.0206 16.0886 7.62511 15.9329 7.25208 15.786L7.17904 15.7573C6.92645 15.6579 6.68462 15.5626 6.45591 15.4728Z" fill="#465A5A"/>
</g>
<defs>
<clipPath id="clip0_368_70">
<rect width="30" height="30" fill="white"/>
</clipPath>
</defs>
</svg>
