<svg width="30" height="30" viewBox="0 0 30 30" fill="none" xmlns="http://www.w3.org/2000/svg">
<rect x="1" y="4" width="28" height="22" rx="3" stroke="#465A5A" stroke-width="2"/>
<path fill-rule="evenodd" clip-rule="evenodd" d="M12.1551 18.2733C12.0783 18.208 11.9985 18.1483 11.9157 18.0956C10.7908 17.2986 9.85836 16.8456 8.48956 16.8456C7.13347 16.8456 6.21242 17.2906 5.09501 18.0738C4.9877 18.1392 4.88618 18.2139 4.7916 18.297C4.44933 18.5973 4.17405 19.0178 4 19.5121V21H13V19.5848C12.8235 19.0453 12.5272 18.5894 12.1551 18.2733ZM5.74182 13.6877C5.74182 15.1721 6.93028 16.3754 8.39632 16.3754C9.86236 16.3754 11.0508 15.1721 11.0508 13.6877C11.0508 12.2033 9.86236 11 8.39632 11C6.93029 11 5.74182 12.2033 5.74182 13.6877Z" fill="#465A5A"/>
<line x1="16" y1="10" x2="24" y2="10" stroke="#465A5A" stroke-width="2" stroke-linecap="round"/>
<line x1="16" y1="15" x2="24" y2="15" stroke="#465A5A" stroke-width="2" stroke-linecap="round"/>
<line x1="16" y1="20" x2="24" y2="20" stroke="#465A5A" stroke-width="2" stroke-linecap="round"/>
</svg>
