<svg width="140" height="180" viewBox="0 0 140 180" fill="none" xmlns="http://www.w3.org/2000/svg">
<path d="M67.423 140.716C65.767 142.406 63.059 142.447 61.3519 140.809L48.7158 128.681C47.0443 127.077 46.9982 124.419 48.6131 122.757C50.2098 121.115 52.8316 121.065 54.4894 122.646L64.3294 132.029L90.6504 105.101C92.2671 103.447 94.9215 103.426 96.5645 105.054C98.1931 106.667 98.2125 109.294 96.6078 110.931L67.423 140.716Z" fill="#465A5A"/>
<path d="M61.5098 83.6778C83.7019 77.7314 106.594 90.9484 112.541 113.141C118.487 135.333 105.27 158.225 83.078 164.172C60.8859 170.118 37.9933 156.901 32.047 134.709C26.1006 112.517 39.3176 89.6241 61.5098 83.6778ZM59.3529 75.6284C32.6813 82.775 16.851 110.194 23.9976 136.866C31.1442 163.537 58.5632 179.368 85.2348 172.221C111.906 165.074 127.737 137.655 120.59 110.984C113.444 84.3121 86.0246 68.4817 59.3529 75.6284Z" fill="#465A5A"/>
<path d="M43.7434 22.2498C40.9888 13.8524 45.8809 2.96032 54.0415 4.13562C57.6004 4.64818 60.0681 8.38584 57.8535 12.8893" stroke="#465A5A" stroke-width="6" stroke-linecap="round"/>
<path d="M36.0977 57.562L42.2375 54.9393" stroke="#465A5A" stroke-width="6" stroke-linecap="round"/>
<path d="M69.8438 48.52L63.2151 49.3186" stroke="#465A5A" stroke-width="6" stroke-linecap="round"/>
<path d="M46.5879 66.626C50.2777 69.0882 53.6304 69.9153 57.7768 68.8043C61.0751 67.9205 63.942 65.4269 65.9064 61.4496" stroke="#465A5A" stroke-width="6" stroke-linecap="round"/>
<path d="M13.0835 60.0742C8.89776 61.1957 7.09031 66.0413 8.1807 70.1106C9.27109 74.18 12.9126 78.7549 18.3861 77.2883" stroke="#465A5A" stroke-width="6" stroke-linecap="round"/>
<rect x="104.928" y="45.3716" width="18" height="4" rx="2" transform="rotate(13.4102 104.928 45.3716)" fill="#465A5A"/>
<circle cx="115.211" cy="40.614" r="3" transform="rotate(13.4102 115.211 40.614)" fill="#465A5A"/>
<path d="M118.477 46.6513C118.971 46.7688 119.536 46.6023 119.653 46.1092C120.063 44.3901 117.782 42.3734 114.559 41.6049C111.336 40.8364 108.39 41.607 107.981 43.3261C107.863 43.8192 108.292 44.2229 108.785 44.3404L118.477 46.6513Z" fill="#465A5A"/>
<line x1="105.582" y1="61.1085" x2="110.446" y2="62.2681" stroke="#465A5A" stroke-width="3" stroke-linecap="round"/>
<line x1="104.19" y1="66.9454" x2="109.053" y2="68.105" stroke="#465A5A" stroke-width="3" stroke-linecap="round"/>
<line x1="102.799" y1="72.7814" x2="107.663" y2="73.941" stroke="#465A5A" stroke-width="3" stroke-linecap="round"/>
<path d="M120.166 66.3686C120.16 66.3939 120.153 66.4194 120.148 66.445C120.14 66.4787 120.132 66.5125 120.124 66.5463C119.946 67.2927 119.648 67.9856 119.245 68.619C118.442 69.8821 118.081 71.3931 118.228 72.8828C118.302 73.6298 118.256 74.3829 118.078 75.1293C118.07 75.1631 118.062 75.1968 118.053 75.2303C118.047 75.2556 118.041 75.2812 118.035 75.3068C118.033 75.3191 118.03 75.3315 118.027 75.3438L117.362 78.1333C116.685 80.9717 113.593 82.889 110.25 82.0918L100.522 79.7726C97.1789 78.9754 95.2849 75.8694 95.9616 73.031L96.6267 70.2416C96.6296 70.2292 96.6327 70.2169 96.6359 70.2047C96.6426 70.1794 96.6488 70.154 96.6545 70.1284C96.662 70.0946 96.6698 70.0608 96.6778 70.027C96.8558 69.2806 97.1543 68.5877 97.5572 67.9543L95.8697 66.8808L97.5572 67.9543C98.3607 66.6913 98.7209 65.1802 98.5738 63.6906C98.5 62.9435 98.5463 62.1904 98.7242 61.444C98.7323 61.4102 98.7406 61.3766 98.7491 61.343C98.7556 61.3176 98.7615 61.2921 98.767 61.2665C98.7696 61.2542 98.7724 61.2419 98.7754 61.2295L99.4404 58.44C100.117 55.6016 103.209 53.6843 106.552 54.4815L116.28 56.8007C119.623 57.5979 121.517 60.7039 120.841 63.5423L120.176 66.3318C120.173 66.3441 120.169 66.3564 120.166 66.3686Z" stroke="#465A5A" stroke-width="4" stroke-linejoin="round"/>
<path d="M74.8952 73.9796C81.0871 67.3784 83.7233 58.3999 81.4804 50.0293C77.8919 36.6371 62.7095 28.1417 46.7392 32.421C30.7689 36.7002 21.8682 51.6486 25.4567 65.0408C27.769 73.6704 34.8953 80.2667 43.9445 82.7221C41.9775 84.0755 40.1227 85.561 38.3892 87.1625C29.3401 83.5111 22.2373 76.2083 19.6611 66.5937C15.087 49.5228 26.515 31.6284 45.1863 26.6254C63.8576 21.6225 82.7018 31.4055 87.2759 48.4764C89.7638 57.7613 87.5178 67.2898 81.9472 74.8551C79.635 74.3983 77.279 74.1034 74.8952 73.9796Z" fill="#465A5A"/>
<path d="M91.544 70.2557C89.105 71.0105 86.3394 71.7243 83.5876 71.8737C81.9332 71.9635 80.5192 70.6952 80.4294 69.0407C80.3396 67.3863 81.6079 65.9723 83.2623 65.8825C86.1335 65.7266 88.8197 64.8403 91.6318 63.9124C92.4074 63.6564 93.1925 63.3974 93.9937 63.1496C93.8698 63.5882 93.6827 64.0093 93.4366 64.3963C92.9178 65.2118 92.5301 66.1101 92.2992 67.0787C92.2888 67.1224 92.2787 67.1661 92.269 67.2099C92.2617 67.2375 92.2547 67.2653 92.248 67.2932L91.583 70.0827C91.5692 70.1403 91.5562 70.198 91.544 70.2557Z" fill="#465A5A"/>
<path fill-rule="evenodd" clip-rule="evenodd" d="M101.875 45.0051C100.509 39.9081 95.2406 34.954 88.9363 36.6433C87.3359 37.0721 86.3861 38.7171 86.8149 40.3175C87.2438 41.9179 88.8888 42.8677 90.4892 42.4388C92.5563 41.885 95.264 43.5162 96.0791 46.558C96.4994 48.1266 96.5089 49.9526 95.9889 51.4068C95.5131 52.7371 94.6199 53.7553 92.9511 54.2025C91.3507 54.6313 90.4009 56.2763 90.8297 57.8767C91.2189 59.3292 92.6099 60.2458 94.0601 60.0822C94.0773 59.4911 94.1543 58.8978 94.295 58.3075C94.3055 58.2638 94.3162 58.2202 94.3273 58.1767C94.3332 58.1488 94.3395 58.1208 94.3462 58.0929L95.0113 55.3034C95.7692 52.1245 98.5826 49.9376 101.847 49.6593C101.475 49.1945 101.314 48.5693 101.463 47.9455L101.572 47.4878C101.671 47.0742 101.891 46.7215 102.186 46.4587C102.105 45.9572 101.999 45.4707 101.875 45.0051Z" fill="#465A5A"/>
</svg>
