<svg width="56" height="56" viewBox="0 0 56 56" fill="none" xmlns="http://www.w3.org/2000/svg">
<rect width="56" height="56" rx="28" fill="#86B5A7"/>
<path fill-rule="evenodd" clip-rule="evenodd" d="M34 29.0475V35C34 36.1046 33.1046 37 32 37H24C22.8954 37 22 36.1046 22 35V29.0475V29C22 28.9787 22.0003 28.9575 22.001 28.9364C22.0598 25.6477 24.7231 23 28 23C31.2769 23 33.9402 25.6477 33.999 28.9364C33.9997 28.9575 34 28.9787 34 29V29.0475ZM25.1633 8.03556C26.8248 6.65481 29.1752 6.65482 30.8367 8.03556L46.2652 20.857C47.3887 21.7906 48 23.1935 48 24.6261V38.1953C48 40.6819 46.1132 43 43.4286 43H12.5714C9.88677 43 8 40.6819 8 38.1953V24.6261C8 23.1935 8.6113 21.7906 9.73477 20.857L25.1633 8.03556L26.4416 9.57375L25.1633 8.03556ZM28 11C27.9222 11 27.8244 11.0251 27.7199 11.1119L12.2913 23.9334C12.1381 24.0607 12 24.3081 12 24.6261V38.1953C12 38.4725 12.1023 38.6906 12.2273 38.8269C12.3497 38.9604 12.4729 39 12.5714 39H43.4286C43.5271 39 43.6503 38.9604 43.7727 38.8269C43.8977 38.6906 44 38.4725 44 38.1953V24.6261C44 24.3081 43.8619 24.0607 43.7087 23.9334L28.2801 11.1119C28.1756 11.0251 28.0778 11 28 11Z" fill="#F0F0EB"/>
</svg>
