<svg width="30" height="30" viewBox="0 0 30 30" fill="none" xmlns="http://www.w3.org/2000/svg">
<path fill-rule="evenodd" clip-rule="evenodd" d="M4 5C2.89543 5 2 5.89543 2 7V23C2 24.1046 2.89543 25 4 25H26C27.1046 25 28 24.1046 28 23V7C28 5.89543 27.1046 5 26 5H4ZM6.52145 8.14672C6.0502 7.85873 5.43471 8.0073 5.14672 8.47855C4.85873 8.9498 5.0073 9.56529 5.47855 9.85328L14.4785 15.3533C14.7987 15.5489 15.2013 15.5489 15.5215 15.3533L24.5215 9.85328C24.9927 9.56529 25.1413 8.9498 24.8533 8.47855C24.5653 8.0073 23.9498 7.85873 23.4785 8.14672L15 13.3281L6.52145 8.14672Z" fill="#465A5A"/>
</svg>
