<svg width="30" height="30" viewBox="0 0 30 30" fill="none" xmlns="http://www.w3.org/2000/svg">
<g clip-path="url(#clip0_278_432)">
<path d="M25 25H20V20H25V25ZM17.5 12.5H12.5V17.5H17.5V12.5ZM25 12.5H20V17.5H25V12.5ZM10 20H5V25H10V20ZM17.5 20H12.5V25H17.5V20ZM10 12.5H5V17.5H10V12.5ZM30 2.5V30H0V2.5H3.75V3.75C3.75 5.12875 4.87125 6.25 6.25 6.25C7.62875 6.25 8.75 5.12875 8.75 3.75V2.5H21.25V3.75C21.25 5.12875 22.3713 6.25 23.75 6.25C25.1287 6.25 26.25 5.12875 26.25 3.75V2.5H30ZM27.5 10H2.5V27.5H27.5V10ZM25 1.25C25 0.56 24.4412 0 23.75 0C23.0588 0 22.5 0.56 22.5 1.25V3.75C22.5 4.44 23.0588 5 23.75 5C24.4412 5 25 4.44 25 3.75V1.25ZM7.5 3.75C7.5 4.44 6.94125 5 6.25 5C5.55875 5 5 4.44 5 3.75V1.25C5 0.56 5.55875 0 6.25 0C6.94125 0 7.5 0.56 7.5 1.25V3.75Z" fill="#465A5A"/>
</g>
<defs>
<clipPath id="clip0_278_432">
<rect width="30" height="30" fill="white"/>
</clipPath>
</defs>
</svg>
