<svg width="86" height="86" viewBox="0 0 86 86" fill="none" xmlns="http://www.w3.org/2000/svg">
<path d="M43.0072 7.16602C62.78 7.16602 78.8333 23.2193 78.8333 42.9922C78.8333 62.7614 62.78 78.8148 43.0072 78.8148C23.2379 78.8148 7.18457 62.7614 7.18457 42.9922C7.18457 23.2193 23.2379 7.16602 43.0072 7.16602ZM43.0072 12.541C26.2013 12.541 12.5596 26.1863 12.5596 42.9922C12.5596 59.798 26.2013 73.4398 43.0072 73.4398C59.813 73.4398 73.4583 59.798 73.4583 42.9922C73.4583 26.1863 59.813 12.541 43.0072 12.541ZM40.3304 40.3119H27.7887C26.3052 40.3119 25.1012 41.5159 25.1012 42.9994C25.1012 44.4828 26.3052 45.6869 27.7887 45.6869H40.3304V58.2285C40.3304 59.712 41.5344 60.916 43.0179 60.916C44.5014 60.916 45.7054 59.712 45.7054 58.2285V45.6869H58.2471C59.7306 45.6869 60.9346 44.4828 60.9346 42.9994C60.9346 41.5159 59.7306 40.3119 58.2471 40.3119H45.7054V27.7702C45.7054 26.2867 44.5014 25.0827 43.0179 25.0827C41.5344 25.0827 40.3304 26.2867 40.3304 27.7702V40.3119Z" fill="#465A5A"/>
</svg>
