<svg width="56" height="56" viewBox="0 0 56 56" fill="none" xmlns="http://www.w3.org/2000/svg">
<rect width="56" height="56" rx="28" fill="#86B5A7"/>
<path d="M30.0488 9.19142C30.6342 8.64395 31 7.8647 31 7C31 5.34315 29.6569 4 28 4C26.3431 4 25 5.34315 25 7C25 7.8647 25.3658 8.64395 25.9512 9.19142C23.6463 9.63798 22 10.8165 22 12.2C22 12.7069 22.5112 13 23.0181 13H32.9819C33.4888 13 34 12.7069 34 12.2C34 10.8165 32.3537 9.63798 30.0488 9.19142Z" fill="#F0F0EB"/>
<path d="M19 17C19 15.8954 19.8954 15 21 15H35C36.1046 15 37 15.8954 37 17C37 18.1046 36.1046 19 35 19H21C19.8954 19 19 18.1046 19 17Z" fill="#F0F0EB"/>
<path d="M22 29.5C22 28.6716 22.6716 28 23.5 28H28.5C29.3284 28 30 28.6716 30 29.5C30 30.3284 29.3284 31 28.5 31H23.5C22.6716 31 22 30.3284 22 29.5Z" fill="#F0F0EB"/>
<path d="M23.5 34C22.6716 34 22 34.6716 22 35.5C22 36.3284 22.6716 37 23.5 37H28.5C29.3284 37 30 36.3284 30 35.5C30 34.6716 29.3284 34 28.5 34H23.5Z" fill="#F0F0EB"/>
<path d="M22 41.5C22 40.6716 22.6716 40 23.5 40H28.5C29.3284 40 30 40.6716 30 41.5C30 42.3284 29.3284 43 28.5 43H23.5C22.6716 43 22 42.3284 22 41.5Z" fill="#F0F0EB"/>
<path fill-rule="evenodd" clip-rule="evenodd" d="M41 31.3677C41 31.3964 40.9997 31.425 40.999 31.4536C40.9997 31.4984 41 31.5433 41 31.5882C41 32.584 40.8312 33.5476 40.5157 34.4612C40.1732 35.4532 40.1732 36.5468 40.5157 37.5388C40.8312 38.4524 41 39.416 41 40.4118C41 40.4567 40.9997 40.5016 40.999 40.5464C40.9993 40.5604 40.9996 40.5745 40.9997 40.5885C40.9999 40.6031 41 40.6177 41 40.6324V43.5C41 47.6421 37.4183 51 33 51H23C18.5817 51 15 47.6421 15 43.5V40.6324C15 40.6036 15.0003 40.575 15.001 40.5464C15.0003 40.5016 15 40.4567 15 40.4118C15 39.416 15.1688 38.4524 15.4843 37.5388C15.8268 36.5468 15.8268 35.4532 15.4843 34.4612C15.1688 33.5476 15 32.584 15 31.5882C15 31.5433 15.0003 31.4984 15.001 31.4536C15.0003 31.425 15 31.3964 15 31.3676V28.5C15 24.3579 18.5817 21 23 21H33C37.4183 21 41 24.3579 41 28.5V31.3677ZM37 28.5V31.3628C36.9988 31.4135 36.9987 31.4642 36.9994 31.5149C36.9998 31.5392 37 31.5637 37 31.5882C37 32.1271 36.9094 32.65 36.7348 33.1556C36.1002 34.9935 36.1002 37.0065 36.7348 38.8444C36.9094 39.35 37 39.8729 37 40.4118C37 40.4363 36.9998 40.4608 36.9994 40.4851C36.9987 40.5358 36.9988 40.5865 37 40.6372V43.5C37 45.1937 35.4562 47 33 47H23C20.5438 47 19 45.1937 19 43.5V40.6372C19.0011 40.5865 19.0013 40.5359 19.0006 40.4852C19.0002 40.4608 19 40.4363 19 40.4118C19 39.8729 19.0906 39.35 19.2652 38.8444C19.8998 37.0065 19.8998 34.9935 19.2652 33.1556C19.0906 32.65 19 32.1271 19 31.5882C19 31.5637 19.0002 31.5392 19.0006 31.5148C19.0013 31.4641 19.0011 31.4135 19 31.3628V28.5C19 26.8063 20.5438 25 23 25H33C35.4562 25 37 26.8063 37 28.5Z" fill="#F0F0EB"/>
</svg>
