<svg width="30" height="30" viewBox="0 0 30 30" fill="none" xmlns="http://www.w3.org/2000/svg">
<path d="M15 2.5C21.8925 2.5 27.5 8.1075 27.5 15C27.5 21.8925 21.8925 27.5 15 27.5C8.1075 27.5 2.5 21.8925 2.5 15C2.5 8.1075 8.1075 2.5 15 2.5ZM15 0C6.71625 0 0 6.71625 0 15C0 23.2837 6.71625 30 15 30C23.2837 30 30 23.2837 30 15C30 6.71625 23.2837 0 15 0ZM16.5476 15C16.3832 15 16.25 14.8668 16.25 14.7024V8.75C16.25 8.05964 15.6904 7.5 15 7.5C14.3096 7.5 13.75 8.05964 13.75 8.75V16.0417C13.75 16.8471 14.4029 17.5 15.2083 17.5H21.25C21.9404 17.5 22.5 16.9404 22.5 16.25C22.5 15.5596 21.9404 15 21.25 15H16.5476Z" fill="#465A5A"/>
</svg>
