<svg width="30" height="30" viewBox="0 0 30 30" fill="none" xmlns="http://www.w3.org/2000/svg">
<path fill-rule="evenodd" clip-rule="evenodd" d="M13.2556 18.5041C13.2556 18.9261 13.4302 19.3308 13.7409 19.6292C14.0516 19.9276 14.4731 20.0952 14.9125 20.0952C15.352 20.0952 15.7734 19.9276 16.0842 19.6292C16.3949 19.3308 16.5695 18.9261 16.5695 18.5041V17.4001H13.2581V18.5041H13.2556ZM25.4357 17.4001H18.2264V18.5041C18.2334 18.9263 18.1528 19.3456 17.9894 19.7376C17.826 20.1296 17.5829 20.4865 17.2745 20.7874C16.966 21.0884 16.5983 21.3274 16.1927 21.4905C15.7872 21.6537 15.3518 21.7377 14.9121 21.7377C14.4724 21.7377 14.0371 21.6537 13.6315 21.4905C13.2259 21.3274 12.8582 21.0884 12.5497 20.7874C12.2413 20.4865 11.9983 20.1296 11.8348 19.7376C11.6714 19.3456 11.5908 18.9263 11.5978 18.5041V17.4001H4.38937C3.58759 17.4508 2.78356 17.3412 2.02816 17.0782C1.27276 16.8152 0.582423 16.4045 0.000833049 15.8721V23.448C0.0518574 24.3843 0.466222 25.2683 1.16227 25.9258C1.85831 26.5832 2.78555 26.9665 3.76125 27H26.0621C27.0381 26.9667 27.9656 26.5836 28.662 25.9261C29.3583 25.2686 29.773 24.3845 29.8242 23.448L30 15.8721C29.3888 16.4134 28.6683 16.8284 27.8831 17.0913C27.0979 17.3541 26.2649 17.4592 25.4357 17.4001ZM14.9125 11.3201C15.796 11.3247 16.6414 11.6661 17.2628 12.2692C17.8843 12.8723 18.2309 13.6877 18.2264 14.5361V15.8001H25.4357C27.7066 15.8001 29.8242 14.3281 29.8242 12.1361V10.3681C29.765 9.45105 29.3419 8.59071 28.6421 7.96418C27.9422 7.33766 27.0189 6.99262 26.0621 7.00012H3.76125C2.80458 6.99264 1.88135 7.33769 1.18164 7.96424C0.481937 8.59078 0.0590287 9.45112 0 10.3681L0 12.1361C0 14.3281 2.11679 15.8001 4.38854 15.8001H11.597V14.5361C11.5948 14.1158 11.6788 13.6993 11.8442 13.3103C12.0097 12.9212 12.2533 12.5673 12.5612 12.2686C12.869 11.97 13.2352 11.7325 13.6386 11.5698C14.0421 11.407 14.4749 11.3222 14.9125 11.3201ZM16.5695 14.5361C16.5695 14.1141 16.3949 13.7093 16.0842 13.4109C15.7734 13.1125 15.352 12.9449 14.9125 12.9449C14.4731 12.9449 14.0516 13.1125 13.7409 13.4109C13.4302 13.7093 13.2556 14.1141 13.2556 14.5361V15.8001H16.5695V14.5361ZM16.5695 15.8001H13.2581V17.4001H16.572V15.8001H16.5695Z" fill="#465A5A"/>
<path d="M9 5V3H20V5" stroke="#465A5A" stroke-width="2" stroke-linecap="round" stroke-linejoin="round"/>
</svg>
