<svg width="30" height="30" viewBox="0 0 30 30" fill="none" xmlns="http://www.w3.org/2000/svg">
<g clip-path="url(#clip0_651_756)">
<path d="M25.5345 7.5C24.951 7.5 20.5845 9 15 9C9.375 9 5.0925 7.5 4.464 7.5C3.657 7.5 3 8.157 3 8.964C3 9.6435 3.4815 10.245 4.1355 10.3905C7.3785 11.235 10.992 11.8125 10.992 15.0885C10.992 20.436 7.5105 25.437 6.102 27.8025C5.973 28.026 5.9055 28.281 5.9055 28.536C5.9055 29.3445 6.5625 30 7.371 30C7.7625 30 8.133 29.8455 8.412 29.565C9.5655 28.407 11.85 24.957 12.8955 23.292C13.482 22.359 14.082 21.522 15.009 21.5205C15.9135 21.522 16.5165 22.359 17.1045 23.292C18.15 24.957 20.433 28.407 21.5865 29.565C21.864 29.8455 22.2345 30 22.629 30C23.436 30 24.093 29.3445 24.093 28.536C24.093 28.281 24.0255 28.0275 23.8815 27.7785C22.4385 25.353 19.0065 20.442 19.0065 15.0885C19.0065 11.625 23.133 11.097 25.851 10.3935C26.5155 10.245 27 9.6435 27 8.964C27 8.157 26.3415 7.5 25.5345 7.5ZM15.0345 0C17.0955 0 18.7665 1.68 18.7665 3.75C18.7665 5.82 17.0955 7.5 15.0345 7.5C12.975 7.5 11.301 5.82 11.301 3.75C11.301 1.68 12.975 0 15.0345 0Z" fill="#465A5A"/>
</g>
<defs>
<clipPath id="clip0_651_756">
<rect width="30" height="30" fill="white"/>
</clipPath>
</defs>
</svg>
