<svg width="56" height="56" viewBox="0 0 56 56" fill="none" xmlns="http://www.w3.org/2000/svg">
<rect width="56" height="56" rx="28" fill="#327864"/>
<path fill-rule="evenodd" clip-rule="evenodd" d="M14.9149 13.0717C11.0585 13.5847 8 16.7923 8 20.7931V37.2069C8 41.5765 11.6485 45 16 45H40C44.3515 45 48 41.5765 48 37.2069V20.7931C48 16.5265 44.5215 13.1619 40.3064 13.0057C40.0661 14.4217 38.8334 15.5 37.3489 15.5C35.8624 15.5 34.6284 14.4189 34.3904 13H20.819C20.581 14.4189 19.347 15.5 17.8605 15.5C16.3991 15.5 15.1818 14.4551 14.9149 13.0717ZM16 17C13.7241 17 12 18.7638 12 20.7931V37.2069C12 39.2362 13.7241 41 16 41H40C42.2759 41 44 39.2362 44 37.2069V20.7931C44 18.7638 42.2759 17 40 17H16Z" fill="#F0F0EB"/>
<line x1="17.8457" y1="9.5" x2="17.8457" y2="11.5" stroke="#F0F0EB" stroke-width="4" stroke-linecap="round"/>
<line x1="37.3457" y1="9.5" x2="37.3457" y2="11.5" stroke="#F0F0EB" stroke-width="4" stroke-linecap="round"/>
<circle cx="20" cy="29" r="2" fill="#F0F0EB"/>
<circle cx="28" cy="29" r="2" fill="#F0F0EB"/>
<circle cx="36" cy="29" r="2" fill="#F0F0EB"/>
</svg>
