<svg width="132" height="30" viewBox="0 0 132 30" fill="none" xmlns="http://www.w3.org/2000/svg">
<path d="M32.18 24.52C31.6067 24.5067 31.2733 24.2467 31.18 23.74V23.72L31.16 23.68C30.96 23.2267 31.16 23.02 31.76 23.06C31.9467 23.0733 32.1667 23.08 32.42 23.08C32.7133 23.08 32.92 23.0067 33.04 22.86C33.32 22.5267 33.56 21.38 33.76 19.42C33.7867 19.0867 33.7667 18.8533 33.7 18.72C33.6467 18.6133 33.5333 18.56 33.36 18.56H32.64C32.28 19.6133 31.8 20.64 31.2 21.64C30.5733 22.6667 29.9067 23.5133 29.2 24.18C29 24.3533 28.82 24.44 28.66 24.44C28.5 24.4533 28.3133 24.3733 28.1 24.2C27.82 23.9867 27.68 23.7867 27.68 23.6C27.6933 23.4133 27.84 23.2067 28.12 22.98C29.3333 21.8867 30.3267 20.4133 31.1 18.56H29.54C29.06 19.44 28.4467 20.3133 27.7 21.18C26.9667 22.0467 26.2067 22.78 25.42 23.38C25.1933 23.5267 25 23.6 24.84 23.6C24.6667 23.5867 24.4867 23.4933 24.3 23.32C24.0333 23.08 23.9133 22.8667 23.94 22.68C23.9667 22.4933 24.14 22.3067 24.46 22.12C25.7667 21.2267 26.9067 20.04 27.88 18.56H26.2C25.64 19.2 25.04 19.76 24.4 20.24C24 20.5467 23.6133 20.5333 23.24 20.2C22.9733 19.96 22.8667 19.74 22.92 19.54C22.96 19.3533 23.1333 19.1533 23.44 18.94C24.6 18.1 25.54 17.0733 26.26 15.86H24.52C24 15.86 23.74 15.5933 23.74 15.06C23.74 14.54 24 14.28 24.52 14.28H29.92H35.32C35.84 14.28 36.1 14.54 36.1 15.06C36.1 15.5933 35.84 15.86 35.32 15.86H28.1C27.9 16.2733 27.66 16.6733 27.38 17.06H34.32C34.76 17.06 35.0733 17.2267 35.26 17.56C35.4733 17.9333 35.54 18.56 35.46 19.44C35.3267 20.8533 35.18 21.9 35.02 22.58C34.8733 23.2333 34.6867 23.68 34.46 23.92C34.18 24.2267 33.7867 24.4133 33.28 24.48C32.9067 24.5067 32.54 24.52 32.18 24.52ZM19.32 20.72C18.76 20.9867 18.36 20.8 18.12 20.16C18 19.8533 17.9733 19.6067 18.04 19.42C18.1067 19.22 18.2867 19.06 18.58 18.94C19.1 18.7267 19.6867 18.4733 20.34 18.18V15.2V12.22H19.04C18.4533 12.22 18.16 11.9267 18.16 11.34C18.16 10.7533 18.4533 10.46 19.04 10.46H20.34V7.28C20.34 6.70667 20.6267 6.42 21.2 6.42C21.7733 6.42 22.06 6.70667 22.06 7.28V10.46H23.16C23.7467 10.46 24.04 10.7533 24.04 11.34C24.04 11.9267 23.7467 12.22 23.16 12.22H22.06V17.42C22.1267 17.3933 22.2333 17.3467 22.38 17.28C22.6467 17.1467 22.8533 17.0467 23 16.98C23.5867 16.7133 23.9533 16.8933 24.1 17.52C24.2067 17.9867 24.0467 18.3333 23.62 18.56C23.22 18.76 22.6133 19.0667 21.8 19.48C20.6667 20.0533 19.84 20.4667 19.32 20.72ZM26.88 13.32C26.4933 13.32 26.18 13.2 25.94 12.96C25.7 12.72 25.58 12.4067 25.58 12.02V8.06C25.58 7.67333 25.7 7.36 25.94 7.12C26.18 6.88 26.4933 6.76 26.88 6.76H30.14H33.42C33.8067 6.76 34.12 6.88 34.36 7.12C34.6 7.36 34.72 7.67333 34.72 8.06V12.02C34.72 12.4067 34.6 12.72 34.36 12.96C34.12 13.2 33.8067 13.32 33.42 13.32H26.88ZM27.72 11.98H30.12H32.54C32.86 11.98 33.02 11.82 33.02 11.5V10.66H27.24V11.5C27.24 11.82 27.4 11.98 27.72 11.98ZM27.24 9.4H30.12H33.02V8.58C33.02 8.26 32.86 8.1 32.54 8.1H27.72C27.4 8.1 27.24 8.26 27.24 8.58V9.4ZM53.26 24.58C52.6467 24.58 52.34 24.2733 52.34 23.66V14.72H49.44C49.3067 18.5333 48.3933 21.54 46.7 23.74C46.4867 23.9933 46.26 24.1267 46.02 24.14C45.78 24.1533 45.5667 24.0467 45.38 23.82C45.3667 23.8067 45.3533 23.7933 45.34 23.78C45.1267 23.62 45.0133 23.4333 45 23.22C44.9867 23.0067 45.08 22.78 45.28 22.54C46.24 21.3 46.9067 19.7867 47.28 18C47.5333 16.7467 47.66 15.2333 47.66 13.46V9.46C47.66 9.03333 47.78 8.72667 48.02 8.54C48.26 8.35333 48.5867 8.30667 49 8.4L49.06 8.42C51.02 7.87333 52.5533 7.32 53.66 6.76C53.9 6.64 54.12 6.6 54.32 6.64C54.48 6.68 54.6733 6.79333 54.9 6.98C55.2467 7.27333 55.4133 7.52667 55.4 7.74C55.3867 7.95333 55.18 8.14667 54.78 8.32C53.4733 8.86667 51.7 9.42667 49.46 10V12.94H52.8H55.28C55.8667 12.94 56.16 13.2333 56.16 13.82C56.16 14.42 55.8667 14.72 55.28 14.72H54.18V23.66C54.18 24.2733 53.8733 24.58 53.26 24.58ZM39.04 24.02C38.8533 24.0867 38.6067 23.9933 38.3 23.74C38.0733 23.54 37.94 23.3267 37.9 23.1C37.8733 22.9 37.9267 22.6467 38.06 22.34C38.7267 20.58 39.06 18.0533 39.06 14.76V8.9C39.06 8.58 39.1467 8.35333 39.32 8.22C39.5067 8.08667 39.7533 8.06667 40.06 8.16L40.12 8.18C41.96 7.72667 43.4733 7.24667 44.66 6.74C44.8867 6.63333 45.0867 6.60667 45.26 6.66C45.42 6.7 45.6 6.81333 45.8 7C46.12 7.29333 46.2667 7.54667 46.24 7.76C46.2267 7.96 46.02 8.14 45.62 8.3C44.3133 8.78 42.7267 9.22 40.86 9.62V11.1H45.28C45.6667 11.1 45.98 11.22 46.22 11.46C46.46 11.7 46.58 12.0133 46.58 12.4V16.24C46.58 16.6267 46.46 16.94 46.22 17.18C45.98 17.42 45.6667 17.54 45.28 17.54H43.68H40.78C40.6067 19.9 40.2133 21.84 39.6 23.36C39.4267 23.7333 39.24 23.9533 39.04 24.02ZM40.84 15.86H42.82H44.32C44.64 15.86 44.8 15.7 44.8 15.38V13.26C44.8 12.94 44.64 12.78 44.32 12.78H40.86V14.78C40.86 15.2467 40.8533 15.6067 40.84 15.86ZM61.16 23.86C60.4533 24.3533 59.9 24.4133 59.5 24.04C59.1933 23.7733 59.12 23.46 59.28 23.1C59.4133 22.7933 59.6867 22.4933 60.1 22.2C61.0867 21.3333 61.7733 20.3067 62.16 19.12C62.4267 18.28 62.56 17.2333 62.56 15.98V14.34C62.56 13.7133 62.8733 13.4 63.5 13.4C64.1267 13.4 64.44 13.7133 64.44 14.34V14.72V16.02C64.44 17.6333 64.2667 18.9667 63.92 20.02C63.4133 21.5533 62.4933 22.8333 61.16 23.86ZM70.4 24.56C69.76 24.56 69.44 24.24 69.44 23.6V18.94V14.26C69.44 13.62 69.76 13.3 70.4 13.3C71.04 13.3 71.36 13.62 71.36 14.26V23.6C71.36 24.24 71.04 24.56 70.4 24.56ZM59.88 14.88C59.2667 15.24 58.78 15.18 58.42 14.7C58.02 14.1533 58.1733 13.6867 58.88 13.3C60.2267 12.4733 61.4933 11.48 62.68 10.32C63.8267 9.18667 64.7533 8.03333 65.46 6.86C65.58 6.67333 65.76 6.51333 66 6.38C66.2533 6.24667 66.5133 6.18 66.78 6.18H66.96C67.5333 6.18 67.9733 6.42 68.28 6.9C69.2267 8.24667 70.34 9.48667 71.62 10.62C72.7667 11.6333 73.9667 12.46 75.22 13.1C75.58 13.2867 75.7867 13.4867 75.84 13.7C75.9067 13.9133 75.8267 14.1867 75.6 14.52C75.24 15.04 74.7733 15.14 74.2 14.82C72.7333 13.9533 71.3533 12.9267 70.06 11.74C68.7133 10.5133 67.6667 9.3 66.92 8.1C66.2267 9.26 65.2533 10.4467 64 11.66C62.7467 12.8733 61.3733 13.9467 59.88 14.88ZM81.76 24.6C81.2133 24.6 80.94 24.3267 80.94 23.78V16.48C79.9267 16.5333 79.18 16.58 78.7 16.62C78.2067 16.6333 77.9333 16.38 77.88 15.86C77.8267 15.3 78.0867 15.0133 78.66 15L79.18 14.98C79.6733 14.3267 80.0467 13.8 80.3 13.4C79.82 12.6933 79.1667 11.9133 78.34 11.06C78.02 10.74 78.0067 10.38 78.3 9.98C78.5933 9.58 78.92 9.53333 79.28 9.84C79.7867 8.92 80.2333 7.97333 80.62 7C80.8067 6.48 81.1667 6.32667 81.7 6.54C82.2467 6.75333 82.38 7.13333 82.1 7.68C81.46 8.92 80.8533 9.97333 80.28 10.84C80.6933 11.28 81.0133 11.6467 81.24 11.94C81.8133 10.9933 82.3267 10.08 82.78 9.2C83.0067 8.73333 83.3667 8.62 83.86 8.86C84.38 9.08667 84.4933 9.45333 84.2 9.96C82.8933 12.0133 81.7667 13.66 80.82 14.9C81.6067 14.8867 82.4333 14.8467 83.3 14.78C83.2467 14.66 83.1667 14.4933 83.06 14.28C82.9533 14.0533 82.8733 13.8867 82.82 13.78C82.58 13.3667 82.6933 13.0667 83.16 12.88C83.5467 12.72 83.84 12.82 84.04 13.18C84.6667 14.3267 85.12 15.3533 85.4 16.26C85.4533 16.46 85.4467 16.62 85.38 16.74C85.3133 16.8467 85.1733 16.9467 84.96 17.04C84.44 17.2533 84.1133 17.1 83.98 16.58C83.9667 16.5533 83.9467 16.5 83.92 16.42C83.9067 16.3667 83.8933 16.3267 83.88 16.3L82.58 16.38V20.5V23.78C82.58 24.3267 82.3067 24.6 81.76 24.6ZM87.72 23.6C87.3333 23.6 87.02 23.48 86.78 23.24C86.54 23 86.42 22.6867 86.42 22.3V17.6C86.42 17.2133 86.54 16.9 86.78 16.66C87.02 16.42 87.3333 16.3 87.72 16.3H90.82H93.94C94.3267 16.3 94.64 16.42 94.88 16.66C95.12 16.9 95.24 17.2133 95.24 17.6V22.3C95.24 22.6867 95.12 23 94.88 23.24C94.64 23.48 94.3267 23.6 93.94 23.6H87.72ZM78.96 22.8C78.8 22.8533 78.5867 22.82 78.32 22.7C78.0667 22.5667 77.9067 22.4267 77.84 22.28C77.7867 22.12 77.8133 21.9133 77.92 21.66C78.2267 20.86 78.48 19.82 78.68 18.54C78.7733 17.9533 79.0867 17.7067 79.62 17.8C80.1133 17.88 80.3267 18.18 80.26 18.7C80.1267 19.4733 79.9867 20.1467 79.84 20.72C79.6933 21.32 79.5333 21.8467 79.36 22.3C79.2533 22.5667 79.12 22.7333 78.96 22.8ZM88.6 21.96H90.78H92.98C93.3 21.96 93.46 21.8 93.46 21.48V18.42C93.46 18.1 93.3 17.94 92.98 17.94H88.6C88.28 17.94 88.12 18.1 88.12 18.42V21.48C88.12 21.8 88.28 21.96 88.6 21.96ZM84.9 21.34C84.38 21.5133 84.0667 21.3533 83.96 20.86C83.9333 20.74 83.88 20.5533 83.8 20.3C83.7333 20.1 83.6867 19.9467 83.66 19.84C83.5267 19.3733 83.3867 18.9667 83.24 18.62C83.0667 18.1533 83.2067 17.8467 83.66 17.7C84.06 17.5667 84.3533 17.7 84.54 18.1C84.8867 18.98 85.1733 19.7933 85.4 20.54C85.4933 20.94 85.3267 21.2067 84.9 21.34ZM86.96 15.02C86.3333 15.3267 85.8667 15.2867 85.56 14.9C85.1467 14.38 85.3533 13.9 86.18 13.46C86.94 12.94 87.52 12.2733 87.92 11.46C88.2533 10.7933 88.5 9.94667 88.66 8.92H86.56C85.9867 8.92 85.7 8.63333 85.7 8.06C85.7 7.48667 85.9867 7.2 86.56 7.2H90.66H94.32C94.7467 7.2 95.06 7.36667 95.26 7.7C95.4867 8.07333 95.58 8.7 95.54 9.58C95.4733 11.14 95.3867 12.26 95.28 12.94C95.1867 13.6333 95.04 14.1 94.84 14.34C94.52 14.7133 94.08 14.9267 93.52 14.98C93.1733 15.02 92.7533 15.0333 92.26 15.02C91.9267 15.0067 91.6533 14.92 91.44 14.76C91.2267 14.6 91.0933 14.38 91.04 14.1V14.08L91.02 14.06C90.78 13.54 91.0067 13.3 91.7 13.34C91.98 13.3533 92.3133 13.36 92.7 13.36C93.02 13.36 93.2333 13.2933 93.34 13.16C93.5667 12.8933 93.7267 11.7733 93.82 9.8C93.8333 9.45333 93.8067 9.21333 93.74 9.08C93.6733 8.97333 93.5533 8.92 93.38 8.92H90.46C90.26 10.32 89.92 11.4733 89.44 12.38C88.8667 13.4733 88.04 14.3533 86.96 15.02Z" fill="#465A5A"/>
<path d="M107 7L115 15L107 23" stroke="#465A5A" stroke-width="2" stroke-linecap="round" stroke-linejoin="round"/>
<rect x="1" y="1" width="130" height="28" rx="14" stroke="#465A5A" stroke-width="2"/>
</svg>
