<svg width="64" height="85" viewBox="0 0 64 85" fill="none" xmlns="http://www.w3.org/2000/svg">
<rect x="4" width="56" height="56" rx="28" fill="#327864"/>
<path d="M14.928 83.784C14.6507 84.1147 14.3093 84.1573 13.904 83.912C13.2213 83.4427 12.6187 82.9093 12.096 82.312C11.68 82.8133 11.232 83.2453 10.752 83.608C10.4853 83.7893 10.2187 83.8533 9.952 83.8C9.68533 83.7573 9.45067 83.6027 9.248 83.336C9.216 83.304 9.17333 83.2667 9.12 83.224C9.07733 83.1813 9.04533 83.1493 9.024 83.128V83.576C9.024 84.0347 8.79467 84.264 8.336 84.264C7.86667 84.264 7.632 84.0347 7.632 83.576V71.224C7.632 70.9147 7.728 70.664 7.92 70.472C8.112 70.28 8.36267 70.184 8.672 70.184H11.072H13.488C13.7973 70.184 14.048 70.28 14.24 70.472C14.432 70.664 14.528 70.9147 14.528 71.224V73.256C14.528 73.6187 14.48 73.8907 14.384 74.072C14.2773 74.2747 14.0907 74.424 13.824 74.52C13.5147 74.6373 12.9173 74.7067 12.032 74.728C11.52 74.728 11.2 74.5573 11.072 74.216C10.8907 73.7147 11.1733 73.4747 11.92 73.496C12.4107 73.496 12.6987 73.4907 12.784 73.48C12.912 73.48 12.9973 73.464 13.04 73.432C13.0933 73.4 13.12 73.336 13.12 73.24V71.96C13.12 71.704 12.992 71.576 12.736 71.576H9.408C9.152 71.576 9.024 71.704 9.024 71.96V75.624H13.856C14.208 75.624 14.464 75.7307 14.624 75.944C14.784 76.1787 14.8213 76.5093 14.736 76.936C14.3413 78.5787 13.744 80.0027 12.944 81.208C13.52 81.8373 14.0907 82.328 14.656 82.68C14.9333 82.84 15.0933 83.0053 15.136 83.176C15.1893 83.3467 15.12 83.5493 14.928 83.784ZM4.64 84.264C4.05333 84.264 3.70133 84.0667 3.584 83.672C3.424 83.1067 3.728 82.8347 4.496 82.856C4.61333 82.856 4.72533 82.856 4.832 82.856C5.01333 82.8453 5.104 82.744 5.104 82.552V78.952H2.96C2.81067 80.872 2.528 82.424 2.112 83.608C2.00533 83.8533 1.88267 84.0027 1.744 84.056C1.60533 84.1093 1.41867 84.0667 1.184 83.928C0.981333 83.8107 0.858667 83.6773 0.816 83.528C0.773333 83.3787 0.794667 83.192 0.88 82.968C1.232 82.0187 1.47733 80.8347 1.616 79.416C1.70133 78.4667 1.744 77.2827 1.744 75.864V71.192C1.744 70.8827 1.84 70.632 2.032 70.44C2.224 70.248 2.47467 70.152 2.784 70.152H4.096H5.424C5.73333 70.152 5.984 70.248 6.176 70.44C6.368 70.632 6.464 70.8827 6.464 71.192V82.584C6.464 83.32 6.272 83.7893 5.888 83.992C5.64267 84.1413 5.22667 84.232 4.64 84.264ZM9.024 82.712C9.024 82.968 9.13067 83.0373 9.344 82.92C9.99467 82.5147 10.64 81.944 11.28 81.208C10.48 80.056 9.824 78.648 9.312 76.984H9.024V80.04V82.712ZM12.064 80.072C12.576 79.2507 12.9867 78.3493 13.296 77.368C13.3813 77.112 13.2907 76.984 13.024 76.984H11.984H10.56C10.9227 78.0933 11.424 79.1227 12.064 80.072ZM3.04 77.544H5.104V76.376V75.192H3.072V75.864C3.072 76.5893 3.06133 77.1493 3.04 77.544ZM3.072 73.8H5.104V72.664V71.912C5.104 71.656 4.976 71.528 4.72 71.528H3.456C3.2 71.528 3.072 71.656 3.072 71.912V73.8ZM23.552 83.912C23.0293 84.1573 22.6453 84.1147 22.4 83.784C22.0693 83.3467 22.2613 82.9573 22.976 82.616C24.16 81.9653 24.9707 80.9947 25.408 79.704H23.824C23.408 79.704 23.2 79.496 23.2 79.08C23.2 78.664 23.408 78.456 23.824 78.456H25.728C25.76 78.296 25.792 78.0453 25.824 77.704C25.8347 77.672 25.84 77.6453 25.84 77.624C25.8933 77.1653 26.1493 76.936 26.608 76.936C27.12 76.936 27.3493 77.192 27.296 77.704C27.2533 78.0133 27.216 78.264 27.184 78.456H28.992H29.952C30.5173 78.456 30.7467 78.9573 30.64 79.96C30.512 81.1013 30.3787 81.9547 30.24 82.52C30.1013 83.0533 29.936 83.4213 29.744 83.624C29.5093 83.88 29.1573 84.04 28.688 84.104C28.3253 84.1253 27.9947 84.1307 27.696 84.12C27.184 84.0987 26.8747 83.912 26.768 83.56C26.5973 83.0053 26.8907 82.7547 27.648 82.808C27.7653 82.808 27.8827 82.808 28 82.808C28.224 82.808 28.3947 82.7493 28.512 82.632C28.7467 82.4293 28.9547 81.6773 29.136 80.376C29.168 80.12 29.1573 79.9387 29.104 79.832C29.0613 79.7467 28.9707 79.704 28.832 79.704H26.912C26.4 81.6347 25.28 83.0373 23.552 83.912ZM19.088 84.184C18.5227 84.2053 18.1813 84.0187 18.064 83.624C17.8933 83.0693 18.1867 82.8027 18.944 82.824C18.9973 82.824 19.072 82.8187 19.168 82.808C19.2107 82.808 19.2427 82.808 19.264 82.808C19.36 82.7973 19.424 82.7813 19.456 82.76C19.4987 82.728 19.52 82.664 19.52 82.568V78.232C19.008 79.4053 18.496 80.3333 17.984 81.016C17.76 81.272 17.568 81.3893 17.408 81.368C17.2587 81.336 17.104 81.1653 16.944 80.856C16.8267 80.6427 16.7787 80.4613 16.8 80.312C16.8213 80.152 16.912 79.992 17.072 79.832C17.872 78.936 18.5333 77.8053 19.056 76.44H17.504C17.0773 76.44 16.864 76.2213 16.864 75.784C16.864 75.3573 17.0773 75.144 17.504 75.144H20.896C20.2453 74.664 19.36 74.1467 18.24 73.592C17.76 73.368 17.7067 73.0587 18.08 72.664C18.3147 72.4187 18.576 72.3547 18.864 72.472C19.0773 72.568 19.408 72.7227 19.856 72.936C20.336 72.552 20.7893 72.104 21.216 71.592H17.664C17.248 71.592 17.04 71.3787 17.04 70.952C17.04 70.536 17.248 70.328 17.664 70.328H19.648H22.176C22.5707 70.328 22.8213 70.44 22.928 70.664C23.0453 70.8773 23.0027 71.1867 22.8 71.592C22.3627 72.2747 21.7547 72.9253 20.976 73.544C21.2107 73.6827 21.4613 73.8373 21.728 74.008C21.8773 74.1253 21.9573 74.2693 21.968 74.44C21.9787 74.6 21.9147 74.76 21.776 74.92L21.568 75.144H22.8C23.056 75.144 23.248 75.224 23.376 75.384C23.504 75.5333 23.5467 75.736 23.504 75.992C23.504 76.0027 23.504 76.0133 23.504 76.024C24.4 75.7787 25.2107 75.4427 25.936 75.016C25.3707 74.4827 24.9013 73.9227 24.528 73.336C24.3147 73.5707 24.1547 73.736 24.048 73.832C23.728 74.12 23.4027 74.1467 23.072 73.912C22.816 73.7307 22.688 73.5547 22.688 73.384C22.688 73.2133 22.816 73.0267 23.072 72.824C23.8827 72.0773 24.5547 71.1867 25.088 70.152C25.2587 69.7573 25.5573 69.6187 25.984 69.736C26.4747 69.8747 26.6187 70.1733 26.416 70.632C26.384 70.696 26.3307 70.792 26.256 70.92C26.192 71.048 26.1387 71.144 26.096 71.208H30.464C30.88 71.208 31.088 71.416 31.088 71.832C31.088 72.248 30.88 72.456 30.464 72.456H29.984C29.5573 73.448 28.9707 74.3013 28.224 75.016C28.8533 75.3893 29.568 75.6987 30.368 75.944C31.072 76.1253 31.2373 76.472 30.864 76.984C30.6293 77.304 30.2933 77.4 29.856 77.272C28.832 76.9307 27.904 76.4827 27.072 75.928C26.3467 76.408 25.4773 76.8293 24.464 77.192C24.2293 77.2667 24.0107 77.272 23.808 77.208C23.616 77.1333 23.4613 77 23.344 76.808L23.328 76.792L23.312 76.776C23.056 77.6933 22.832 78.3973 22.64 78.888C22.512 79.1973 22.272 79.2613 21.92 79.08C21.6 78.92 21.4933 78.696 21.6 78.408C21.7173 78.0453 21.8613 77.5227 22.032 76.84C22.096 76.5733 22 76.44 21.744 76.44H20.912V82.584C20.912 82.968 20.8747 83.256 20.8 83.448C20.7147 83.6613 20.5547 83.832 20.32 83.96C20.0427 84.088 19.632 84.1627 19.088 84.184ZM27.04 74.216C27.5733 73.736 28.016 73.1493 28.368 72.456H26.896H25.44C25.8453 73.096 26.3787 73.6827 27.04 74.216ZM39.136 83.928C38.6133 84.1413 38.2453 84.0987 38.032 83.8C37.8613 83.5653 37.8507 83.3467 38 83.144C38.128 82.9627 38.352 82.8027 38.672 82.664C39.344 82.28 39.8453 81.7787 40.176 81.16C40.4427 80.648 40.6293 79.9707 40.736 79.128H40.112C39.952 79.128 39.824 79.08 39.728 78.984C39.632 78.888 39.584 78.76 39.584 78.6V71.208C39.584 70.8987 39.68 70.648 39.872 70.456C40.064 70.264 40.3147 70.168 40.624 70.168H42.992H45.376C45.6853 70.168 45.936 70.264 46.128 70.456C46.32 70.648 46.416 70.8987 46.416 71.208V78.088C46.416 78.3973 46.32 78.648 46.128 78.84C45.936 79.032 45.6853 79.128 45.376 79.128H44.624V82.216C44.624 82.4187 44.6453 82.5467 44.688 82.6C44.7307 82.6427 44.8267 82.664 44.976 82.664H45.776C45.9253 82.664 46.0267 82.536 46.08 82.28C46.1013 81.8853 46.176 81.56 46.304 81.304C46.464 80.984 46.672 80.8827 46.928 81C47.0773 81.0747 47.184 81.256 47.248 81.544C47.3013 81.7787 47.3173 82.0133 47.296 82.248C47.2107 82.9093 47.0613 83.368 46.848 83.624C46.656 83.8587 46.3413 83.976 45.904 83.976H44.736C44.1387 83.976 43.744 83.848 43.552 83.592C43.36 83.3573 43.264 82.904 43.264 82.232V79.128H42.128C41.9893 80.2907 41.7173 81.224 41.312 81.928C40.8427 82.7707 40.1173 83.4373 39.136 83.928ZM34.272 83.512C33.8773 83.8747 33.52 83.8907 33.2 83.56C32.848 83.1867 32.9013 82.7973 33.36 82.392C34.448 81.2293 35.072 79.48 35.232 77.144H33.504C33.056 77.144 32.832 76.9147 32.832 76.456C32.832 76.008 33.056 75.784 33.504 75.784H35.28V75.32V73.448H33.776C33.3387 73.448 33.12 73.224 33.12 72.776C33.12 72.3387 33.3387 72.12 33.776 72.12H35.28V70.424C35.28 69.9653 35.5093 69.736 35.968 69.736C36.4267 69.736 36.656 69.9653 36.656 70.424V72.12H38.128C38.5653 72.12 38.784 72.3387 38.784 72.776C38.784 73.224 38.5653 73.448 38.128 73.448H36.656V75.32V75.784H38.384C38.832 75.784 39.056 76.008 39.056 76.456C39.056 76.9147 38.832 77.144 38.384 77.144H37.824H36.608C36.608 77.2187 36.5973 77.336 36.576 77.496C36.5653 77.6453 36.5547 77.7573 36.544 77.832C37.0987 78.3653 37.8827 79.2347 38.896 80.44C39.024 80.6 39.072 80.744 39.04 80.872C39.008 80.9573 38.9067 81.0907 38.736 81.272C38.5227 81.496 38.352 81.608 38.224 81.608C38.064 81.6293 37.9093 81.5227 37.76 81.288C37.408 80.7653 36.9227 80.1253 36.304 79.368C35.9627 81.0747 35.2853 82.456 34.272 83.512ZM41.344 77.784H44.624C44.88 77.784 45.008 77.656 45.008 77.4V76.488H42.976H40.96V77.4C40.96 77.656 41.088 77.784 41.344 77.784ZM40.96 75.288H45.008V73.976H42.976H40.96V75.288ZM40.96 72.776H45.008V71.896C45.008 71.64 44.88 71.512 44.624 71.512H42.976H41.344C41.088 71.512 40.96 71.64 40.96 71.896V72.776ZM50.384 83.816C50.032 84.168 49.6693 84.1893 49.296 83.88C49.0613 83.6773 48.944 83.4853 48.944 83.304C48.944 83.1333 49.0613 82.9413 49.296 82.728C50.3413 81.6187 51.0347 79.992 51.376 77.848C51.408 77.592 51.504 77.3893 51.664 77.24C51.824 77.08 52.0213 77.0107 52.256 77.032C52.7787 77.0853 52.9973 77.3733 52.912 77.896C52.8373 78.2907 52.7467 78.728 52.64 79.208C53.152 80.5733 54.0107 81.512 55.216 82.024V75.816H52.272C51.8027 75.816 51.568 75.576 51.568 75.096C51.568 74.6267 51.8027 74.392 52.272 74.392H56.016H59.776C60.2453 74.392 60.48 74.6267 60.48 75.096C60.48 75.576 60.2453 75.816 59.776 75.816H56.752V78.168H60.592C61.0507 78.168 61.28 78.3973 61.28 78.856C61.28 79.3253 61.0507 79.56 60.592 79.56H56.752V82.44C57.4453 82.536 58.1867 82.584 58.976 82.584C60.3627 82.584 61.4453 82.5787 62.224 82.568C62.5973 82.5573 62.832 82.616 62.928 82.744C63.024 82.872 63.008 83.112 62.88 83.464C62.7413 83.8587 62.4267 84.056 61.936 84.056H58.896C57.1893 84.056 55.8453 83.864 54.864 83.48C53.68 83.0107 52.7467 82.1893 52.064 81.016C51.6373 82.1253 51.0773 83.0587 50.384 83.816ZM50.112 74.984C49.632 74.984 49.392 74.744 49.392 74.264V72.344C49.392 72.0347 49.488 71.784 49.68 71.592C49.872 71.4 50.1227 71.304 50.432 71.304H55.2V70.376C55.2 69.8533 55.4613 69.592 55.984 69.592C56.5067 69.592 56.768 69.8533 56.768 70.376V71.304H61.584C61.8933 71.304 62.144 71.4 62.336 71.592C62.528 71.784 62.624 72.0347 62.624 72.344V74.232C62.624 74.7333 62.3733 74.984 61.872 74.984C61.3707 74.984 61.12 74.7333 61.12 74.232V73.096C61.12 72.84 60.992 72.712 60.736 72.712H55.968H51.216C50.96 72.712 50.832 72.84 50.832 73.096V74.264C50.832 74.744 50.592 74.984 50.112 74.984Z" fill="#465A5A"/>
<rect x="18" y="12" width="28" height="32" rx="4" stroke="#F0F0EB" stroke-width="4"/>
<line x1="26" y1="20" x2="38" y2="20" stroke="#F0F0EB" stroke-width="4" stroke-linecap="round"/>
<line x1="26" y1="28" x2="38" y2="28" stroke="#F0F0EB" stroke-width="4" stroke-linecap="round"/>
<line x1="26" y1="36" x2="38" y2="36" stroke="#F0F0EB" stroke-width="4" stroke-linecap="round"/>
</svg>
