<svg width="56" height="56" viewBox="0 0 56 56" fill="none" xmlns="http://www.w3.org/2000/svg">
<rect width="56" height="56" rx="28" fill="#86B5A7"/>
<rect x="19" y="15" width="18" height="4" rx="2" fill="#F0F0EB"/>
<circle cx="28" cy="7" r="3" fill="#F0F0EB"/>
<path d="M32.9819 13C33.4888 13 34 12.7069 34 12.2C34 10.4327 31.3137 9 28 9C24.6863 9 22 10.4327 22 12.2C22 12.7069 22.5112 13 23.0181 13H32.9819Z" fill="#F0F0EB"/>
<line x1="23.5" y1="29.5" x2="28.5" y2="29.5" stroke="#F0F0EB" stroke-width="3" stroke-linecap="round"/>
<line x1="23.5" y1="35.5" x2="28.5" y2="35.5" stroke="#F0F0EB" stroke-width="3" stroke-linecap="round"/>
<line x1="23.5" y1="41.5" x2="28.5" y2="41.5" stroke="#F0F0EB" stroke-width="3" stroke-linecap="round"/>
<path d="M38.9995 31.4057C38.9989 31.4318 38.9988 31.458 38.9992 31.4842C38.9997 31.5188 39 31.5535 39 31.5882C39 32.3555 38.8703 33.0988 38.6253 33.8084C38.1367 35.2233 38.1367 36.7767 38.6253 38.1916C38.8703 38.9012 39 39.6445 39 40.4118C39 40.4465 38.9997 40.4812 38.9992 40.5158C38.9988 40.542 38.9989 40.5682 38.9995 40.5943C38.9998 40.607 39 40.6197 39 40.6324V43.5C39 46.4179 36.4373 49 33 49H23C19.5627 49 17 46.4179 17 43.5V40.6324C17 40.6196 17.0002 40.607 17.0005 40.5944C17.0011 40.5682 17.0012 40.542 17.0008 40.5158C17.0003 40.4812 17 40.4465 17 40.4118C17 39.6445 17.1297 38.9012 17.3747 38.1916L15.4843 37.5388L17.3747 38.1916C17.8633 36.7767 17.8633 35.2233 17.3747 33.8084C17.1297 33.0988 17 32.3555 17 31.5882C17 31.5535 17.0003 31.5188 17.0008 31.4842C17.0012 31.458 17.0011 31.4318 17.0005 31.4056C17.0002 31.393 17 31.3804 17 31.3676V28.5C17 25.5821 19.5627 23 23 23H33C36.4373 23 39 25.5821 39 28.5V31.3677C39 31.3803 38.9998 31.393 38.9995 31.4057Z" stroke="#F0F0EB" stroke-width="4" stroke-linejoin="round"/>
</svg>
